# xmcd CD database file
#
# Track frame offsets:
#	150
#	18055
#	55395
#
# Disc length: 974 seconds
#
# Revision: 4
# Processed by: cddbd v1.5.2PL0 Copyright (c) Steve Scherf et al.
# Submitted via: CDex 1.70beta2
#
DISCID=1a03cc03
DTITLE=長渕剛 - 金色のライオン
DYEAR=2004
DGENRE=Folk
TTITLE0=金色のライオン
TTITLE1=Myself (04.8.21桜島ALL NIGHT LIVE VERSION)
TTITLE2=金色のライオン<Instrumental>
EXTD=YEAR: 2004
EXTT0=
EXTT1=
EXTT2=
PLAYORDER=
